<?xml version="1.0" standalone="no"?><!DOCTYPE svg PUBLIC "-//W3C//DTD SVG 1.1//EN" "http://www.w3.org/Graphics/SVG/1.1/DTD/svg11.dtd"><svg t="1679408259266" class="icon" viewBox="0 0 1024 1024" version="1.1" xmlns="http://www.w3.org/2000/svg" p-id="9327" xmlns:xlink="http://www.w3.org/1999/xlink" width="200" height="200"><path d="M714.6 307c0-21.9-17.9-39.6-39.7-39.6H301.4c-21.9 0-39.7 17.9-39.7 39.6-0.1 21.8 17.8 39.6 39.7 39.6h373.5c21.9 0 39.7-17.8 39.7-39.6zM301.4 472c-21.9-0.1-39.8 17.8-39.8 39.6 0 21.9 17.9 39.6 39.7 39.6h214.5c21.9 0 39.7-17.9 39.7-39.6 0-21.9-17.9-39.6-39.7-39.6H301.4zM929.9 601.5l-136.2-137c-16.3-16.3-43.1-16.3-59.4 0l-138.2 137c-16.3 16.3-16.3 43 0 59.3 16.3 16.3 43.1 16.3 59.4 0l65.5-65.4v322.8c0 23.1 18.9 41.9 42 41.9s42-18.9 42-41.9V595.5l65.5 65.4c16.3 16.3 43.1 16.3 59.4 0 16.3-16.4 16.3-43.1 0-59.4z" p-id="9328"></path><path d="M507.8 732.8L454 781.6l-77.2 69.9-80.5-73-53.8-48.8-52.6 47.6V143.7H824l1 240.7 80 63.7-1-344.3c0-22.1-17.9-39.9-40-39.9H150.1c-22.1 0-40 17.9-40 39.9v854l132.6-120.2L377 959.3l130.9-118.7 121.2 109.9V842.7l-67.5-61.2-53.8-48.7z" p-id="9329"></path></svg>