<?xml version="1.0" standalone="no"?><!DOCTYPE svg PUBLIC "-//W3C//DTD SVG 1.1//EN" "http://www.w3.org/Graphics/SVG/1.1/DTD/svg11.dtd"><svg t="1679408099005" class="icon" viewBox="0 0 1024 1024" version="1.1" xmlns="http://www.w3.org/2000/svg" p-id="4399" xmlns:xlink="http://www.w3.org/1999/xlink" width="200" height="200"><path d="M793.6 217.6v-28.8256C793.6 141.2608 754.7392 102.4 707.1744 102.4H188.7744C141.2608 102.4 102.4 141.2608 102.4 188.7744v403.2c0 47.5136 38.8608 86.4256 86.3744 86.4256h28.8256V303.9744c0-47.7184 38.656-86.4256 86.4256-86.4256H793.6z m92.8256 64H367.9744c-47.5136 0-86.3744 38.8608-86.3744 86.3744v403.2c0 47.5136 38.8608 86.4256 86.4256 86.4256H512L627.2 972.8l115.2-115.2h144.0256c47.5136 0 86.3744-38.8608 86.3744-86.4256V367.9744c0-47.5136-38.8608-86.3744-86.3744-86.3744z" fill="#333333" p-id="4400"></path></svg>