<?xml version="1.0" standalone="no"?><!DOCTYPE svg PUBLIC "-//W3C//DTD SVG 1.1//EN" "http://www.w3.org/Graphics/SVG/1.1/DTD/svg11.dtd"><svg t="1679408297913" class="icon" viewBox="0 0 1024 1024" version="1.1" xmlns="http://www.w3.org/2000/svg" p-id="10312" xmlns:xlink="http://www.w3.org/1999/xlink" width="200" height="200"><path d="M683.861333 417.792 235.008 417.792 235.008 475.648 683.861333 475.648Z" p-id="10313"></path><path d="M235.008 606.037333 655.018667 606.037333 655.018667 548.181333 235.008 548.181333Z" p-id="10314"></path><path d="M235.008 736.426667 524.117333 736.426667 524.117333 678.741333 235.008 678.741333Z" p-id="10315"></path><path d="M235.008 287.402667 235.008 345.258667 481.109333 345.258667 481.109333 287.402667Z" p-id="10316"></path><path d="M147.797333 127.829333l405.845333 0 0 217.258667 217.429333 0 0 280.405333 57.685333 0L828.757333 306.176 607.914667 70.485333 607.573333 69.973333 140.8 69.973333c-27.989333 0-50.517333 22.698667-50.517333 50.517333l0 782.336c0 27.989333 22.698667 50.688 50.517333 50.688l383.488 0L524.288 896 147.797333 896 147.797333 127.829333zM611.498667 287.402667 611.498667 169.813333l109.738667 117.418667L611.498667 287.232z" p-id="10317"></path><path d="M927.914667 637.44c-13.994667-10.581333-33.962667-8.021333-44.714667 5.973333L706.048 875.52 593.92 777.386667c-13.312-11.605333-33.450667-10.24-44.885333 3.072-11.605333 13.312-10.24 33.450667 3.072 45.056l137.728 120.490667c13.824 12.117333 35.157333 10.069333 46.421333-4.608l197.802667-259.072c10.581333-13.994667 8.021333-33.962667-5.973333-44.714667L928.085333 637.44z" p-id="10318"></path></svg>