<?xml version="1.0" standalone="no"?><!DOCTYPE svg PUBLIC "-//W3C//DTD SVG 1.1//EN" "http://www.w3.org/Graphics/SVG/1.1/DTD/svg11.dtd"><svg t="1679408533376" class="icon" viewBox="0 0 1024 1024" version="1.1" xmlns="http://www.w3.org/2000/svg" p-id="16492" xmlns:xlink="http://www.w3.org/1999/xlink" width="200" height="200"><path d="M128 853.333333h768a42.666667 42.666667 0 0 1 0 85.333334H128a42.666667 42.666667 0 0 1 0-85.333334z" fill="#191919" p-id="16493"></path><path d="M960 85.333333h-896A64 64 0 0 0 0 149.333333v554.666667A64 64 0 0 0 64 768h896a64 64 0 0 0 64-64v-554.666667A64 64 0 0 0 960 85.333333zM938.666667 170.666667v512H85.333333V170.666667h853.333334z" fill="#191919" p-id="16494"></path><path d="M778.88 227.541333a42.666667 42.666667 0 0 1 66.901333 52.736l-3.328 4.181334-229.418666 256a42.666667 42.666667 0 0 1-55.466667 7.04l-4.266667-3.242667-163.712-141.653333-142.933333 178.730666a42.666667 42.666667 0 0 1-55.594667 9.728l-4.394666-3.072a42.666667 42.666667 0 0 1-9.728-55.594666l3.072-4.394667 170.666666-213.333333a42.666667 42.666667 0 0 1 57.173334-8.704l4.053333 3.114666 165.546667 143.189334 201.429333-224.725334z" fill="#191919" p-id="16495"></path></svg>