<?xml version="1.0" standalone="no"?><!DOCTYPE svg PUBLIC "-//W3C//DTD SVG 1.1//EN" "http://www.w3.org/Graphics/SVG/1.1/DTD/svg11.dtd"><svg t="1684673484509" class="icon" viewBox="0 0 1024 1024" version="1.1" xmlns="http://www.w3.org/2000/svg" p-id="1934" xmlns:xlink="http://www.w3.org/1999/xlink" width="200" height="200"><path d="M950.38591 915.89077l-35.743062 33.507138c-13.404288 13.404288-36.859489 13.404288-50.261731 0L721.412962 815.366286c-34.625612 18.98847-74.835406 30.157857-117.279077 30.157857-126.213563 0-235.673557-100.524484-239.023862-218.921012L185.282379 626.603131l0-55.846936 186.528254 0c5.585205-20.104897 13.403265-39.092343 23.456225-55.846936L185.282379 514.90926l0-55.846936 256.896928 0-1.118474 1.11745c41.327244-35.743062 96.058776-58.080813 156.372443-58.080813 128.446417 0 240.141312 103.875812 240.141312 224.505193 0 41.326221-12.285814 80.419588-33.509185 112.811322l140.735301 134.031623C959.320397 886.850363 963.789175 903.604956 950.38591 915.89077L950.38591 915.89077zM597.433276 469.115284c-89.356121 0-160.839175 68.13275-160.839175 150.787238 0 83.770915 79.302137 157.487847 167.539784 157.487847 89.355097 0 160.840198-68.133773 160.840198-150.787238S685.671946 469.115284 597.433276 469.115284L597.433276 469.115284zM185.282379 234.55713l419.968957 0 0 55.846936L185.282379 290.404066 185.282379 234.55713 185.282379 234.55713zM604.133885 359.65529c-35.742039 10.05296-69.249177 23.455201-98.289584 43.560098L185.282379 403.215388l0-55.846936 419.968957 0 0 12.285814L604.133885 359.654266zM664.448576 348.485903l0-170.892135L124.967688 177.593767l0 560.703235 253.5456 0c12.285814 41.327244 34.624589 79.30316 63.666018 111.693872L124.967688 849.990874c-33.508161 0-60.314691-24.573675-60.314691-55.846936L64.652997 121.746832c0-31.274284 26.807552-55.846936 60.314691-55.846936l539.480888 0c33.508161 0 60.314691 24.572652 60.314691 55.846936l0 226.739071c-10.05296-1.11745-20.103874-3.351328-30.157857-3.351328C684.554496 346.251002 674.501536 348.485903 664.448576 348.485903L664.448576 348.485903z" fill="#1296db" p-id="1935"></path></svg>