<?xml version="1.0" standalone="no"?><!DOCTYPE svg PUBLIC "-//W3C//DTD SVG 1.1//EN" "http://www.w3.org/Graphics/SVG/1.1/DTD/svg11.dtd"><svg t="1684672021987" class="icon" viewBox="0 0 1024 1024" version="1.1" xmlns="http://www.w3.org/2000/svg" p-id="19908" xmlns:xlink="http://www.w3.org/1999/xlink" width="200" height="200"><path d="M1002.10169 744.7l-33.6 10.4c1 7.3 2.1 14.3 2.1 21.8 0 7.3-1.2 14.4-2.4 21.6l33.8 10.6c7.9 2.2 14.5 7.6 18.3 14.8 3.8 7.3 4.7 15.8 2 23.6-5.4 16-23.2 24.7-39.9 19.7l-34.2-10.6c-7.1 12.8-15.8 24.7-26.2 35.2l20.8 27.5c5.1 6.4 7.2 14.7 5.8 22.8-1.4 8-6 15.1-12.7 19.6-14.2 10-33.8 7-44.4-6.8l-20.8-27.6c-13.7 6.6-28.2 11.2-43 13.9v33.6c0 16.7-14.1 30.4-31.6 30.4-17.6 0-31.9-13.7-31.9-30.4V941c-14.9-2.7-29.3-7.3-42.9-13.9l-20.9 27.6c-10.7 13.8-30.1 16.6-44.3 6.8-6.7-4.5-11.3-11.6-12.7-19.6-1.4-8.1 0.7-16.3 5.7-22.8l20.9-27.8c-10.5-10.3-19.6-22-27-34.7L609.60169 867c-16.8 5.2-34.6-3.6-39.9-19.6-5.3-15.6 3.1-32.5 18.7-37.8 0.5-0.2 1-0.3 1.5-0.5l33.5-10.4c-0.8-7.3-2-14.3-2-21.8 0-7.4 1.2-14.5 2.3-21.6l-33.8-10.4c-16.7-5.4-25.6-22.5-20.2-38.4 5.4-16 23.1-24.7 39.9-19.7l34 10.8c7.3-12.7 15.8-24.8 26.3-35.3l-20.8-27.6c-9.9-12.9-7.5-31.4 5.4-41.3 0.5-0.4 1-0.8 1.6-1.1 14.2-9.9 33.7-6.9 44.4 6.8l20.8 27.6c13.7-6.4 28.2-11.2 43.1-14V579c0-16.7 14-30.4 31.6-30.4 17.5 0 31.8 13.6 31.8 30.4v33.5c15.1 2.7 29.3 7.8 42.8 14l21-27.6c10.6-13.7 30-16.6 44.2-6.8 13.6 9.1 17.2 27.4 8.1 41-0.3 0.5-0.7 1-1 1.4l-21 27.8c10.4 10.4 19.9 21.9 27 34.8l33.4-10.4c16.8-5.1 34.6 3.7 39.9 19.7 5.7 15.9-3.5 33-20.1 38.3z m-206-74.4c-61.3 0-111.1 47.8-111.1 106.6 0 58.9 49.8 106.5 111.1 106.5s111.1-47.6 111.1-106.5c0-58.8-49.8-106.6-111.1-106.6z" p-id="19909" fill="#1296db"></path><path d="M802.80169 57.2h-76.4c0-22.1-21-38.2-42.8-38.2H39.40169C17.40169 19.1-0.19831 37 0.00169 58.9v795.6s41.9 120.2 110.8 120.2h562.5c-45.3-20-82.9-54.2-107-97.4H117.60169S77.00169 863.6 77.00169 836.1l470.3-0.3 1.7 3.4c-8.2-23.7-12.5-48.6-12.6-73.6 0-60.6 24-118.6 66.9-161.4 33.6-33.4 76.8-55.6 123.6-63.4l-3.2 0.3 2.1-424.7H764.00169l0.6 421c27 0 52.7 4.8 76.6 13.3V101.5s-6.4-44.3-38.4-44.3zM149.70169 514.4H72.40169V437h77.4v77.4z m0-144.4H72.40169v-77.4h77.4V370z m0-137.2H72.40169v-77.4h77.4c-0.1-0.1-0.1 77.4-0.1 77.4z m501.9 281.6H206.10169V437h445.5v77.4z m0-144.4H206.10169v-77.4h445.5V370z m0-137.2H206.10169v-77.4h445.5v77.4z" p-id="19910" fill="#1296db"></path></svg>