<?xml version="1.0" standalone="no"?><!DOCTYPE svg PUBLIC "-//W3C//DTD SVG 1.1//EN" "http://www.w3.org/Graphics/SVG/1.1/DTD/svg11.dtd"><svg t="1679408808933" class="icon" viewBox="0 0 1024 1024" version="1.1" xmlns="http://www.w3.org/2000/svg" p-id="23464" xmlns:xlink="http://www.w3.org/1999/xlink" width="200" height="200"><path d="M894.85 120.49H591.8a30.9 30.9 0 0 0-30.87 30.87V476.2H473V151.36a30.9 30.9 0 0 0-30.87-30.87h-303a30.9 30.9 0 0 0-30.87 30.87v704.33a30.9 30.9 0 0 0 30.87 30.87h303.05A30.9 30.9 0 0 0 473 855.69V534.3h87.88v321.39a30.9 30.9 0 0 0 30.87 30.87H895a30.63 30.63 0 0 0 30.69-31.8v-703.4a30.9 30.9 0 0 0-30.84-30.87z m-479.91 708H166.37V178.6h248.57z m452.67 0H619V178.6h248.61z" p-id="23465"></path><path d="M261.51 440.07h58.1v130.19h-58.1zM714.36 440.07h58.1v130.19h-58.1z" p-id="23466"></path></svg>