<?xml version="1.0" standalone="no"?><!DOCTYPE svg PUBLIC "-//W3C//DTD SVG 1.1//EN" "http://www.w3.org/Graphics/SVG/1.1/DTD/svg11.dtd"><svg t="1679408754936" class="icon" viewBox="0 0 1024 1024" version="1.1" xmlns="http://www.w3.org/2000/svg" p-id="22169" xmlns:xlink="http://www.w3.org/1999/xlink" width="200" height="200"><path d="M341.333333 227.555556H227.555556V56.888889H170.666667v170.666667H56.888889v227.555555h113.777778v512h56.888889V455.111111h113.777777V227.555556zM284.444444 398.222222H113.777778V284.444444h170.666666v113.777778zM796.444444 227.555556V56.888889h-56.888888v170.666667h-113.777778v227.555555h113.777778v512h56.888888V455.111111h113.777778V227.555556h-113.777778z m56.888889 170.666666h-170.666666V284.444444h170.666666v113.777778zM512 56.888889H455.111111v512H341.333333v227.555555h113.777778v170.666667h56.888889v-170.666667h113.777778v-227.555555H512V56.888889z m56.888889 568.888889v113.777778H398.222222v-113.777778h170.666667z" fill="#333333" p-id="22170"></path></svg>