<?xml version="1.0" standalone="no"?><!DOCTYPE svg PUBLIC "-//W3C//DTD SVG 1.1//EN" "http://www.w3.org/Graphics/SVG/1.1/DTD/svg11.dtd"><svg t="1679408720999" class="icon" viewBox="0 0 1024 1024" version="1.1" xmlns="http://www.w3.org/2000/svg" p-id="21168" xmlns:xlink="http://www.w3.org/1999/xlink" width="200" height="200"><path d="M512 514.304a131.328 131.328 0 0 1-66.56-17.92l-96-55.296a133.376 133.376 0 0 1-66.304-115.2V215.04a133.376 133.376 0 0 1 66.304-115.2l96-55.552a134.144 134.144 0 0 1 133.12 0l96 55.552a133.376 133.376 0 0 1 66.304 115.2v110.848a133.376 133.376 0 0 1-66.304 115.2l-96 55.296a131.328 131.328 0 0 1-66.56 17.92zM512 76.8a81.408 81.408 0 0 0-40.96 11.008l-96 56.32a82.176 82.176 0 0 0-40.704 70.912v110.848a82.176 82.176 0 0 0 40.704 70.912l96 55.296a82.176 82.176 0 0 0 81.92 0l96-55.296a82.176 82.176 0 0 0 40.704-70.912V215.04a82.176 82.176 0 0 0-40.704-70.912L552.96 88.832A81.408 81.408 0 0 0 512 76.8zM254.464 965.632A133.376 133.376 0 0 1 188.16 947.2L92.16 892.416A132.352 132.352 0 0 1 25.6 777.472V665.6a132.864 132.864 0 0 1 66.56-115.2l96-55.552a133.632 133.632 0 0 1 132.864 0l96 55.552a132.864 132.864 0 0 1 66.56 115.2v110.848a132.352 132.352 0 0 1-66.56 114.944L321.024 947.2a133.632 133.632 0 0 1-66.56 18.432z m0-435.2a82.176 82.176 0 0 0-40.704 10.752L117.76 595.712A81.92 81.92 0 0 0 76.8 665.6v110.848a81.92 81.92 0 0 0 40.96 70.656l96 56.576a81.664 81.664 0 0 0 81.664 0l96-55.552a81.92 81.92 0 0 0 40.96-70.656V665.6a81.92 81.92 0 0 0-40.96-70.912l-96-54.528a82.176 82.176 0 0 0-40.96-10.752zM769.536 965.632a133.632 133.632 0 0 1-66.56-17.664l-96-55.552a133.12 133.12 0 0 1-66.56-114.944V665.6a133.376 133.376 0 0 1 66.56-115.2l96-55.552a133.632 133.632 0 0 1 132.864 0l96 55.552A132.864 132.864 0 0 1 998.4 665.6v110.848a132.352 132.352 0 0 1-66.56 114.944L835.84 947.2a133.376 133.376 0 0 1-66.304 18.432z m0-435.2a82.176 82.176 0 0 0-40.96 10.752l-96 55.552a81.92 81.92 0 0 0-40.96 68.864v110.848a81.92 81.92 0 0 0 40.96 70.656l96 55.552a81.664 81.664 0 0 0 81.664 0l96-55.552a81.92 81.92 0 0 0 40.96-69.632V665.6a81.92 81.92 0 0 0-40.96-70.912l-96-54.528a82.176 82.176 0 0 0-40.704-10.752z" fill="#262626" p-id="21169"></path></svg>