<?xml version="1.0" standalone="no"?><!DOCTYPE svg PUBLIC "-//W3C//DTD SVG 1.1//EN" "http://www.w3.org/Graphics/SVG/1.1/DTD/svg11.dtd"><svg t="1679408384408" class="icon" viewBox="0 0 1077 1024" version="1.1" xmlns="http://www.w3.org/2000/svg" p-id="13143" xmlns:xlink="http://www.w3.org/1999/xlink" width="210.3515625" height="200"><path d="M564.520755 644.096c3.072-17.408 25.6-23.552 37.888-11.264l106.496 105.472c15.36 15.36 39.936 15.36 55.296 0l54.272-54.272c15.36-15.36 15.36-39.936 0-54.272L711.976755 522.24c-13.312-12.288-7.168-34.816 10.24-37.888 62.464-12.288 129.024 6.144 178.176 55.296 53.248 53.248 70.656 129.024 50.176 197.632-3.072 11.264-1.024 23.552 7.168 31.744l108.544 107.52c15.36 15.36 15.36 39.936 0 54.272l-55.296 54.272c-15.36 15.36-39.936 15.36-55.296 0L847.144755 875.52c-8.192-8.192-20.48-10.24-31.744-7.168-67.584 19.456-143.36 3.072-196.608-50.176-47.104-47.104-64.512-112.64-54.272-174.08z m425.984 291.84c16.384 0 29.696-13.312 29.696-29.696s-13.312-29.696-29.696-29.696c-16.384 0-29.696 13.312-29.696 29.696s13.312 29.696 29.696 29.696z" p-id="13144"></path><path d="M977.192755 436.224l-22.528-81.92c-2.048-8.192-8.192-15.36-15.36-19.456-8.192-5.12-17.408-8.192-25.6-6.144L865.576755 340.992c-21.504 4.096-44.032-4.096-57.344-22.528l-41.984-54.272c-14.336-15.36-18.432-41.984-8.192-60.416l25.6-45.056c8.192-15.36 2.048-34.816-13.312-41.984L693.544755 71.68c-7.168-4.096-16.384-5.12-24.576-3.072-8.192 2.048-14.336 7.168-18.432 14.336l-25.6 43.008c-11.264 18.432-33.792 27.648-55.296 23.552l-67.584-9.216c-20.48-2.048-44.032-18.432-48.128-38.912l-13.312-48.128c-2.048-8.192-8.192-15.36-15.36-19.456-8.192-5.12-18.432-7.168-27.648-5.12l-82.944 20.48c-17.408 4.096-27.648 22.528-22.528 38.912l13.312 48.128c5.12 21.504-3.072 43.008-21.504 55.296l-54.272 40.96c-16.384 14.336-40.96 16.384-61.44 6.144l-44.032-25.6c-14.336-9.216-32.768-5.12-43.008 9.216L35.112755 301.056c-3.072 7.168-4.096 14.336-2.048 21.504 3.072 8.192 8.192 15.36 15.36 19.456l44.032 25.6c19.456 12.288 28.672 34.816 24.576 56.32L109.864755 491.52c-1.024 20.48-17.408 43.008-37.888 46.08l-48.128 12.288c-17.408 5.12-27.648 22.528-22.528 39.936l22.528 81.92c5.12 17.408 22.528 27.648 40.96 23.552l49.152-12.288c21.504-4.096 44.032 4.096 57.344 22.528l41.984 54.272c14.336 16.384 17.408 40.96 7.168 59.392l-25.6 43.008c-4.096 7.168-5.12 16.384-3.072 24.576 2.048 8.192 8.192 15.36 15.36 19.456l76.8 44.032c7.168 4.096 16.384 5.12 24.576 3.072 8.192-2.048 15.36-7.168 19.456-14.336l25.6-43.008c12.288-18.432 34.816-27.648 56.32-23.552l68.608 9.216c20.48 1.024 43.008 18.432 48.128 38.912l13.312 48.128c5.12 17.408 22.528 27.648 40.96 23.552l82.944-20.48c12.288-3.072 20.48-13.312 23.552-24.576-46.08-13.312-88.064-36.864-122.88-71.68-32.768-32.768-56.32-72.704-68.608-115.712h-3.072c-138.24 0-249.856-111.616-249.856-249.856 0-138.24 111.616-249.856 249.856-249.856 99.328 0 185.344 57.344 225.28 141.312 15.36-2.048 30.72-4.096 46.08-4.096 72.704 0 140.288 27.648 192.512 76.8h1.024c13.312-3.072 23.552-20.48 19.456-37.888z" p-id="13145"></path><path d="M484.648755 629.76c1.024-9.216 4.096-17.408 8.192-24.576-16.384 1.024-33.792-3.072-49.152-12.288-44.032-25.6-59.392-81.92-33.792-125.952 25.6-44.032 81.92-59.392 125.952-33.792 39.936 22.528 55.296 70.656 39.936 112.64 4.096 0 7.168-1.024 11.264-1.024 17.408 0 33.792 4.096 48.128 11.264-12.288-23.552-16.384-52.224-8.192-78.848 6.144-21.504 19.456-39.936 35.84-52.224-31.744-64.512-98.304-108.544-175.104-108.544C380.200755 316.416 292.136755 403.456 292.136755 512c0 105.472 82.944 190.464 187.392 194.56-1.024-25.6 0-51.2 5.12-76.8z" p-id="13146"></path></svg>