<?xml version="1.0" standalone="no"?><!DOCTYPE svg PUBLIC "-//W3C//DTD SVG 1.1//EN" "http://www.w3.org/Graphics/SVG/1.1/DTD/svg11.dtd"><svg t="1679408457925" class="icon" viewBox="0 0 1024 1024" version="1.1" xmlns="http://www.w3.org/2000/svg" p-id="14305" xmlns:xlink="http://www.w3.org/1999/xlink" width="200" height="200"><path d="M588.729556 225.13839a43.378932 43.378932 0 0 0-41.262005-3.200677L269.073647 346.294504h-169.137374a43.350032 43.350032 0 0 0-43.350032 43.350031v259.095915a43.350032 43.350032 0 0 0 43.350032 43.350032h169.137374l278.401129 124.378466a43.277782 43.277782 0 0 0 41.262005-3.222352 43.299457 43.299457 0 0 0 19.767615-36.363452V261.516292a43.357257 43.357257 0 0 0-19.77484-36.377902zM932.155733 476.626374h-179.295732a43.350032 43.350032 0 0 0 0 86.700064h179.295732a43.350032 43.350032 0 1 0 0-86.700064zM727.334058 412.865702a43.118832 43.118832 0 0 0 23.705242-7.08773l148.025908-96.988471a43.350032 43.350032 0 1 0-47.518859-72.517378L703.527665 333.253369a43.350032 43.350032 0 0 0 23.806393 79.612333zM899.065208 731.163311L751.0393 634.182064a43.350032 43.350032 0 0 0-47.51886 72.524604l148.025909 96.981246a43.299457 43.299457 0 0 0 60.010894-12.49926 43.350032 43.350032 0 0 0-12.492035-60.025343z" fill="" p-id="14306"></path></svg>