<?xml version="1.0" standalone="no"?><!DOCTYPE svg PUBLIC "-//W3C//DTD SVG 1.1//EN" "http://www.w3.org/Graphics/SVG/1.1/DTD/svg11.dtd"><svg t="1679408413081" class="icon" viewBox="0 0 1034 1024" version="1.1" xmlns="http://www.w3.org/2000/svg" p-id="13296" xmlns:xlink="http://www.w3.org/1999/xlink" width="201.953125" height="200"><path d="M734.208 196.608c97.28 0 186.368 33.792 258.048 89.088V178.176c0-38.912-37.888-68.608-83.968-68.608H83.968c-47.104 0-83.968 29.696-83.968 68.608v353.28h324.608c38.912-190.464 207.872-334.848 409.6-334.848zM390.144 851.968H75.776c-20.48 0-37.888 14.336-37.888 30.72s17.408 30.72 37.888 30.72h366.592c-18.432-18.432-36.864-39.936-52.224-61.44zM317.44 593.92h-317.44v34.816c0 38.912 37.888 69.632 83.968 69.632h240.64c-5.12-26.624-8.192-55.296-8.192-83.968 0-6.144 1.024-13.312 1.024-20.48z" fill="#383838" p-id="13297"></path><path d="M980.992 614.4c0-34.816 21.504-64.512 53.248-76.8-7.168-28.672-18.432-56.32-33.792-80.896-30.72 13.312-66.56 8.192-91.136-16.384-24.576-24.576-30.72-61.44-16.384-91.136-24.576-14.336-52.224-26.624-80.896-33.792-12.288 30.72-41.984 53.248-76.8 53.248-34.816 0-64.512-21.504-76.8-53.248-28.672 7.168-56.32 18.432-80.896 33.792 13.312 30.72 8.192 66.56-16.384 91.136-24.576 24.576-61.44 30.72-91.136 16.384-15.36 24.576-26.624 52.224-33.792 80.896 30.72 12.288 53.248 41.984 53.248 76.8 0 34.816-21.504 64.512-53.248 76.8 7.168 28.672 18.432 56.32 33.792 80.896 30.72-13.312 66.56-8.192 91.136 16.384 24.576 24.576 30.72 61.44 16.384 91.136 24.576 14.336 52.224 26.624 80.896 33.792 12.288-30.72 41.984-53.248 76.8-53.248 34.816 0 64.512 21.504 76.8 53.248 28.672-7.168 56.32-18.432 80.896-33.792-13.312-30.72-8.192-66.56 16.384-91.136 24.576-24.576 61.44-30.72 91.136-16.384 15.36-24.576 26.624-52.224 33.792-80.896-30.72-12.288-53.248-41.984-53.248-76.8zM734.208 759.808C654.336 759.808 588.8 694.272 588.8 614.4c0-79.872 65.536-145.408 145.408-145.408 79.872 0 145.408 65.536 145.408 145.408 0 80.896-64.512 145.408-145.408 145.408z" fill="#383838" p-id="13298"></path><path d="M734.208 614.4m-74.752 0a74.752 74.752 0 1 0 149.504 0 74.752 74.752 0 1 0-149.504 0Z" fill="#383838" p-id="13299"></path></svg>