<?xml version="1.0" standalone="no"?><!DOCTYPE svg PUBLIC "-//W3C//DTD SVG 1.1//EN" "http://www.w3.org/Graphics/SVG/1.1/DTD/svg11.dtd"><svg t="1679408217976" class="icon" viewBox="0 0 1024 1024" version="1.1" xmlns="http://www.w3.org/2000/svg" p-id="8317" xmlns:xlink="http://www.w3.org/1999/xlink" width="200" height="200"><path d="M512 725.33c0-23.45 3.79-46.01 10.79-67.12H403.96l-98.9 98.89-98.9-98.89H128V231.55h682.67v298.22c33.97 14.84 63.33 38.27 85.33 67.55v-451.1H42.67v597.33h128.16l134.24 134.23L439.3 743.55h73.48c-0.51-6.01-0.78-12.08-0.78-18.22z" fill="#333333" p-id="8318"></path><path d="M256 359.55h85.33v85.33H256zM426.67 359.55H512v85.33h-85.33zM725.33 981.33c-141.16 0-256-114.84-256-256s114.84-256 256-256 256 114.84 256 256-114.84 256-256 256z m0-426.66c-94.1 0-170.67 76.56-170.67 170.67S631.23 896 725.33 896 896 819.44 896 725.33s-76.56-170.66-170.67-170.66zM597.33 359.55h85.33v85.33h-85.33z" fill="#333333" p-id="8319"></path><path d="M657.07 597.33h85.33V768h-85.33z" fill="#333333" p-id="8320"></path><path d="M840.53 725.33v85.33H657.06v-85.33z" fill="#333333" p-id="8321"></path></svg>